<svg width="25" height="25" viewBox="0 0 25 25" fill="none" xmlns="http://www.w3.org/2000/svg">
<path d="M15.0005 7.50035C15.0005 7.27933 14.9127 7.06736 14.7564 6.91108C14.6001 6.75479 14.3881 6.66699 14.1671 6.66699C13.9461 6.66699 13.7341 6.75479 13.5778 6.91108C13.4215 7.06736 13.3337 7.27933 13.3337 7.50035V10.0004H10.8337C10.6126 10.0004 10.4007 10.0882 10.2444 10.2445C10.0881 10.4008 10.0003 10.6128 10.0003 10.8338C10.0003 11.0548 10.0881 11.2668 10.2444 11.4231C10.4007 11.5793 10.6126 11.6671 10.8337 11.6671H13.3337V14.1672C13.3337 14.3882 13.4215 14.6002 13.5778 14.7565C13.7341 14.9128 13.9461 15.0006 14.1671 15.0006C14.3881 15.0006 14.6001 14.9128 14.7564 14.7565C14.9127 14.6002 15.0005 14.3882 15.0005 14.1672V11.6671H17.5005C17.7216 11.6671 17.9335 11.5793 18.0898 11.4231C18.2461 11.2668 18.3339 11.0548 18.3339 10.8338C18.3339 10.6128 18.2461 10.4008 18.0898 10.2445C17.9335 10.0882 17.7216 10.0004 17.5005 10.0004H15.0005V7.50035Z" fill="black"/>
<path d="M0.833359 0C0.612338 0 0.40037 0.0878 0.244085 0.244085C0.0878001 0.40037 0 0.612338 0 0.833359C0 1.05438 0.0878001 1.26635 0.244085 1.42263C0.40037 1.57892 0.612338 1.66672 0.833359 1.66672H2.68342L3.35177 4.34513L5.84851 17.6539C5.88426 17.8448 5.98561 18.0173 6.13504 18.1415C6.28447 18.2657 6.47259 18.3337 6.66687 18.3339H8.33359C7.44951 18.3339 6.60164 18.6851 5.9765 19.3102C5.35135 19.9354 5.00015 20.7833 5.00015 21.6673C5.00015 22.5514 5.35135 23.3993 5.9765 24.0244C6.60164 24.6496 7.44951 25.0008 8.33359 25.0008C9.21767 25.0008 10.0655 24.6496 10.6907 24.0244C11.3158 23.3993 11.667 22.5514 11.667 21.6673C11.667 20.7833 11.3158 19.9354 10.6907 19.3102C10.0655 18.6851 9.21767 18.3339 8.33359 18.3339H20.0006C19.1165 18.3339 18.2687 18.6851 17.6435 19.3102C17.0184 19.9354 16.6672 20.7833 16.6672 21.6673C16.6672 22.5514 17.0184 23.3993 17.6435 24.0244C18.2687 24.6496 19.1165 25.0008 20.0006 25.0008C20.8847 25.0008 21.7326 24.6496 22.3577 24.0244C22.9829 23.3993 23.3341 22.5514 23.3341 21.6673C23.3341 20.7833 22.9829 19.9354 22.3577 19.3102C21.7326 18.6851 20.8847 18.3339 20.0006 18.3339H21.6673C21.8616 18.3337 22.0497 18.2657 22.1992 18.1415C22.3486 18.0173 22.4499 17.8448 22.4857 17.6539L24.9858 4.32013C25.0083 4.19986 25.004 4.0761 24.9733 3.95765C24.9426 3.8392 24.8862 3.72897 24.8081 3.63479C24.73 3.5406 24.6321 3.46477 24.5213 3.41269C24.4106 3.36061 24.2898 3.33355 24.1674 3.33344H4.81682L4.14179 0.631686C4.09681 0.45132 3.99281 0.291174 3.84634 0.176713C3.69986 0.0622531 3.51933 5.1354e-05 3.33344 0H0.833359ZM7.35856 16.6672L5.17016 5.00015H23.164L20.9756 16.6672H7.35856ZM10.0003 21.6673C10.0003 22.1094 9.82471 22.5333 9.51214 22.8459C9.19957 23.1585 8.77563 23.3341 8.33359 23.3341C7.89155 23.3341 7.46761 23.1585 7.15504 22.8459C6.84247 22.5333 6.66687 22.1094 6.66687 21.6673C6.66687 21.2253 6.84247 20.8014 7.15504 20.4888C7.46761 20.1762 7.89155 20.0006 8.33359 20.0006C8.77563 20.0006 9.19957 20.1762 9.51214 20.4888C9.82471 20.8014 10.0003 21.2253 10.0003 21.6673ZM21.6673 21.6673C21.6673 22.1094 21.4917 22.5333 21.1792 22.8459C20.8666 23.1585 20.4427 23.3341 20.0006 23.3341C19.5586 23.3341 19.1346 23.1585 18.8221 22.8459C18.5095 22.5333 18.3339 22.1094 18.3339 21.6673C18.3339 21.2253 18.5095 20.8014 18.8221 20.4888C19.1346 20.1762 19.5586 20.0006 20.0006 20.0006C20.4427 20.0006 20.8666 20.1762 21.1792 20.4888C21.4917 20.8014 21.6673 21.2253 21.6673 21.6673Z" fill="black"/>
</svg>
