<svg width="21" height="14" viewBox="0 0 21 14" fill="none" xmlns="http://www.w3.org/2000/svg">
<path d="M11.1278 5.79326C10.6102 5.71105 10.0927 5.54662 9.70447 5.29999C9.31629 5.21778 9.1869 4.97114 9.1869 4.80672C9.1869 4.6423 9.31629 4.39566 9.57508 4.31345C9.96326 4.14903 10.3514 3.98461 10.7396 4.06682C11.516 4.06682 12.1629 4.31345 12.5511 4.6423L13.7157 3.65576C13.3275 3.40913 12.9393 3.2447 12.5511 3.08028C12.1629 2.91586 11.6454 2.83364 11.1278 2.83364V1.68268H9.57508V2.83364C8.92811 2.91586 8.28115 3.16249 7.76358 3.49134C7.24601 3.90239 6.85783 4.39566 6.98722 4.88893C6.98722 5.3822 7.24601 5.87547 7.76358 6.20432C8.41054 6.61538 9.31629 6.86201 10.0927 7.10864C10.4808 7.19086 10.9984 7.35528 11.3866 7.5197C11.6454 7.68413 11.7748 7.93076 11.7748 8.17739C11.7748 8.42403 11.6454 8.67066 11.3866 8.9173C10.9984 9.16393 10.4808 9.24614 10.0927 9.24614C9.57508 9.24614 8.92812 9.16393 8.53994 8.9173C8.15176 8.75288 7.76358 8.50624 7.50479 8.25961L6.21086 9.16393C6.59904 9.49278 6.98722 9.73941 7.50479 9.98605C8.15176 10.2327 8.92811 10.4793 9.70447 10.4793V11.5481H11.1278V10.3149C11.9042 10.2327 12.5511 9.98605 13.0687 9.6572C13.7157 9.24614 14.1038 8.58845 14.1038 8.01297C14.1038 7.5197 13.845 6.94422 13.1981 6.61538C12.5511 6.20432 11.9042 5.95768 11.1278 5.79326ZM10.3514 0.0384521C4.65815 0.0384521 0 2.99807 0 6.61538C0 10.2327 4.65815 13.1923 10.3514 13.1923C16.0447 13.1923 20.7029 10.2327 20.7029 6.61538C20.7029 2.99807 16.0447 0.0384521 10.3514 0.0384521ZM10.3514 12.288C5.4345 12.288 1.42332 9.73941 1.42332 6.61538C1.42332 3.49134 5.4345 0.942779 10.3514 0.942779C15.2684 0.942779 19.2796 3.49134 19.2796 6.61538C19.2796 9.73941 15.2684 12.288 10.3514 12.288Z" fill="black"/>
</svg>
