<svg width="40" height="41" viewBox="0 0 40 41" fill="none" xmlns="http://www.w3.org/2000/svg">
<g clip-path="url(#clip0_205_443)">
<path d="M40 20.9201C40 19.2421 39.8638 18.0177 39.5692 16.7478H20.4082V24.3214H31.6552C31.4286 26.2036 30.2041 29.0381 27.483 30.9427L27.4448 31.1963L33.5032 35.8896L33.9229 35.9315C37.7777 32.3714 40 27.1333 40 20.9201Z" fill="#4285F4"/>
<path d="M20.4082 40.8748C25.9183 40.8748 30.5441 39.0606 33.9229 35.9315L27.4829 30.9427C25.7596 32.1445 23.4466 32.9835 20.4082 32.9835C15.0114 32.9835 10.4309 29.4236 8.7981 24.5029L8.55877 24.5233L2.2592 29.3985L2.17682 29.6276C5.53279 36.2942 12.4262 40.8748 20.4082 40.8748Z" fill="#34A853"/>
<path d="M8.7981 24.5029C8.36727 23.2331 8.11793 21.8725 8.11793 20.4667C8.11793 19.0607 8.36727 17.7002 8.77543 16.4304L8.76402 16.1599L2.38551 11.2063L2.17682 11.3056C0.79366 14.072 0 17.1787 0 20.4667C0 23.7546 0.79366 26.8611 2.17682 29.6276L8.7981 24.5029Z" fill="#FBBC05"/>
<path d="M20.4082 7.94958C24.2403 7.94958 26.8253 9.6049 28.2993 10.9882L34.0589 5.36459C30.5216 2.07662 25.9183 0.0584717 20.4082 0.0584717C12.4262 0.0584717 5.53279 4.63894 2.17682 11.3055L8.77543 16.4303C10.4309 11.5097 15.0114 7.94958 20.4082 7.94958Z" fill="#EB4335"/>
</g>
<defs>
<clipPath id="clip0_205_443">
<rect width="40" height="40.9333" fill="white"/>
</clipPath>
</defs>
</svg>
