<svg width="26" height="26" viewBox="0 0 26 26" fill="none" xmlns="http://www.w3.org/2000/svg">
<path d="M18.72 0V2H22.283L18.908 5.406C17.7017 4.4951 16.2316 4.00158 14.72 4C12.85 4 11.104 4.74 9.782 6.063C9.12854 6.70858 8.60974 7.47746 8.25568 8.32507C7.90163 9.17267 7.71936 10.0821 7.71946 11.0007C7.71955 11.9193 7.902 12.8287 8.25622 13.6762C8.61045 14.5238 9.12941 15.2926 9.783 15.938C10.653 16.808 11.689 17.433 12.845 17.75C12.959 17.663 13.087 17.572 13.189 17.47C13.6082 17.0437 13.9093 16.5158 14.063 15.938C12.9743 15.8036 11.9621 15.3082 11.188 14.531C10.244 13.588 9.72 12.336 9.72 11C9.72 9.664 10.245 8.414 11.19 7.47C12.132 6.523 13.384 6 14.72 6C16.056 6 17.307 6.525 18.25 7.47C18.7166 7.93172 19.0868 8.48154 19.3392 9.08752C19.5915 9.6935 19.721 10.3436 19.72 11C19.72 11.865 19.475 12.67 19.064 13.406C19.16 13.922 19.22 14.464 19.22 15C19.22 15.498 19.178 15.99 19.095 16.47C19.295 16.307 19.473 16.122 19.658 15.938C20.98 14.614 21.72 12.87 21.72 11C21.72 9.47 21.216 8.016 20.314 6.812L23.72 3.438V7H25.72V0H18.72ZM12.595 8.25C12.481 8.337 12.353 8.428 12.251 8.53C11.819 8.964 11.537 9.49 11.377 10.063C12.467 10.203 13.462 10.679 14.252 11.469C15.197 12.412 15.722 13.664 15.722 14.999C15.722 16.334 15.197 17.585 14.252 18.529C13.308 19.477 12.056 20 10.72 20C9.384 20 8.133 19.475 7.19 18.53C6.72305 18.0685 6.3526 17.5188 6.10022 16.9127C5.84785 16.3067 5.7186 15.6565 5.72 15C5.72 14.135 5.965 13.33 6.376 12.594C6.2756 12.0685 6.22338 11.535 6.22 11C6.22 10.502 6.262 10.01 6.345 9.53C6.145 9.693 5.968 9.878 5.782 10.063C4.462 11.384 3.72 13.13 3.72 15C3.72 16.53 4.224 17.984 5.126 19.188L3.44 20.875L1.44 18.875L0 20.281L2 22.281L0 24.281L1.44 25.721L3.44 23.721L5.44 25.721L6.845 24.281L4.845 22.281L6.533 20.595C7.73816 21.5073 9.20848 22.0007 10.72 22C12.59 22 14.336 21.26 15.658 19.937C16.98 18.616 17.72 16.87 17.72 15C17.72 13.13 16.98 11.386 15.657 10.062C14.787 9.192 13.751 8.567 12.595 8.25Z" fill="#7A7575"/>
</svg>
