<svg xmlns="http://www.w3.org/2000/svg" width="66" height="66" viewBox="0 0 66 66">
  <g id="Group_6" data-name="Group 6" transform="translate(-171.365 -480.365)">
    <circle id="Ellipse_4" data-name="Ellipse 4" cx="33" cy="33" r="33" transform="translate(171.365 480.365)" fill="#fff"/>
    <path id="lock" d="M11.532,17.751V12.22a9.22,9.22,0,1,1,18.439,0v5.532h1.844A3.688,3.688,0,0,1,35.5,21.439V36.191a3.688,3.688,0,0,1-3.688,3.688H9.688A3.688,3.688,0,0,1,6,36.191V21.439a3.688,3.688,0,0,1,3.688-3.688ZM9.688,21.439V36.191H31.815V21.439Zm5.532-3.688H26.283V12.22a5.532,5.532,0,1,0-11.064,0Zm9.22,7.376h3.688V32.5H24.439Z" transform="translate(183.422 491.734)" fill="#333333" fill-rule="evenodd"/>
  </g>
</svg>
