<svg width="20" height="23" viewBox="0 0 20 23" fill="none" xmlns="http://www.w3.org/2000/svg">
<path d="M8.43842 5.24075L5.4967 1.33599C5.15757 0.886013 4.53584 0.888013 4.14192 1.34199L1.72281 4.12882C1.00281 4.95777 0.796725 6.1887 1.21324 7.17564C3.70159 13.1002 7.85673 17.8851 13.0054 20.7548C13.8627 21.2338 14.9323 20.9968 15.6523 20.1679L18.094 17.355C18.4897 16.9001 18.4905 16.1811 18.0958 15.7911L14.6871 12.4263C14.3306 12.0743 13.7767 12.1203 13.4193 12.5323L12.2332 13.8982C12.1725 13.9714 12.0925 14.0197 12.0057 14.0356C11.9188 14.0514 11.8298 14.0341 11.7523 13.9862C9.81359 12.7024 8.20537 10.8506 7.09147 8.61955C7.04976 8.53031 7.03465 8.42779 7.04848 8.32772C7.0623 8.22766 7.10428 8.13557 7.168 8.06558L8.3506 6.70467C8.70886 6.29069 8.74799 5.65073 8.43842 5.23975V5.24075Z" stroke="#7A7575" stroke-width="2" stroke-linecap="round" stroke-linejoin="round"/>
</svg>
