<svg width="20" height="26" viewBox="0 0 20 26" fill="none" xmlns="http://www.w3.org/2000/svg">
<path d="M7.6375 8.125C6.90484 8.125 6.20219 8.41605 5.68412 8.93412C5.16605 9.45219 4.875 10.1548 4.875 10.8875C4.875 11.1649 4.92964 11.4396 5.0358 11.6959C5.14197 11.9522 5.29757 12.1851 5.49374 12.3813C5.6899 12.5774 5.92278 12.733 6.17908 12.8392C6.43538 12.9454 6.71008 13 6.9875 13H12.5125C12.7899 13 13.0646 12.9454 13.3209 12.8392C13.5772 12.733 13.8101 12.5774 14.0063 12.3813C14.2024 12.1851 14.358 11.9522 14.4642 11.6959C14.5704 11.4396 14.625 11.1649 14.625 10.8875C14.625 10.1548 14.334 9.45219 13.8159 8.93412C13.2978 8.41605 12.5952 8.125 11.8625 8.125H7.6375ZM6.5 10.8875C6.5 10.5858 6.61984 10.2965 6.83317 10.0832C7.04649 9.86984 7.33582 9.75 7.6375 9.75H11.8625C12.1642 9.75 12.4535 9.86984 12.6668 10.0832C12.8802 10.2965 13 10.5858 13 10.8875C13 11.0168 12.9486 11.1408 12.8572 11.2322C12.7658 11.3236 12.6418 11.375 12.5125 11.375H6.9875C6.85821 11.375 6.73421 11.3236 6.64279 11.2322C6.55136 11.1408 6.5 11.0168 6.5 10.8875ZM9.75 0C8.67256 0 7.63925 0.428012 6.87738 1.18988C6.11551 1.95175 5.6875 2.98506 5.6875 4.0625V4.134C3.99015 4.9122 2.5519 6.16136 1.54369 7.73302C0.535476 9.30468 -0.000311721 11.1328 1.3606e-07 13V21.125C1.3606e-07 22.4179 0.513615 23.6579 1.42785 24.5721C2.34209 25.4864 3.58207 26 4.875 26H14.625C15.9179 26 17.1579 25.4864 18.0721 24.5721C18.9864 23.6579 19.5 22.4179 19.5 21.125V13C19.5003 11.1328 18.9645 9.30468 17.9563 7.73302C16.9481 6.16136 15.5099 4.9122 13.8125 4.134V4.0625C13.8125 2.98506 13.3845 1.95175 12.6226 1.18988C11.8608 0.428012 10.8274 0 9.75 0ZM17.875 16.25H1.625V13C1.625 10.8451 2.48102 8.77849 4.00476 7.25476C5.52849 5.73102 7.59512 4.875 9.75 4.875C11.9049 4.875 13.9715 5.73102 15.4952 7.25476C17.019 8.77849 17.875 10.8451 17.875 13V16.25ZM4.875 20.3125C4.875 20.528 4.9606 20.7347 5.11298 20.887C5.26535 21.0394 5.47201 21.125 5.6875 21.125C5.90299 21.125 6.10965 21.0394 6.26202 20.887C6.4144 20.7347 6.5 20.528 6.5 20.3125V17.875H17.875V21.125C17.875 21.987 17.5326 22.8136 16.9231 23.4231C16.3136 24.0326 15.487 24.375 14.625 24.375H4.875C4.01305 24.375 3.1864 24.0326 2.5769 23.4231C1.96741 22.8136 1.625 21.987 1.625 21.125V17.875H4.875V20.3125ZM9.75 3.25C8.94695 3.24984 8.14691 3.34807 7.36775 3.5425C7.48563 2.99829 7.78629 2.51085 8.21971 2.16127C8.65313 1.81168 9.19317 1.62103 9.75 1.62103C10.3068 1.62103 10.8469 1.81168 11.2803 2.16127C11.7137 2.51085 12.0144 2.99829 12.1322 3.5425C11.3685 3.35237 10.5723 3.25 9.75 3.25Z" fill="black"/>
</svg>
