<svg width="22" height="26" viewBox="0 0 22 26" fill="none" xmlns="http://www.w3.org/2000/svg">
<path d="M18.2618 13.7401C18.2493 11.6089 19.2149 10.0027 21.1648 8.81841C20.0742 7.25597 18.4243 6.39663 16.2494 6.23101C14.1901 6.06851 11.937 7.43096 11.1121 7.43096C10.2402 7.43096 8.24656 6.28726 6.67787 6.28726C3.44049 6.33725 0 8.8684 0 14.0182C0 15.54 0.278114 17.1118 0.834342 18.7305C1.57806 20.8617 4.25921 26.0834 7.05598 25.999C8.51842 25.9646 9.55275 24.9615 11.4558 24.9615C13.3026 24.9615 14.2588 25.999 15.89 25.999C18.7118 25.9584 21.1367 21.2117 21.8429 19.0743C18.0587 17.29 18.2618 13.8495 18.2618 13.7401ZM17.9306 22.0835C17.4837 22.7054 17.0337 23.196 16.6212 23.5116C16.2931 23.7616 16.04 23.8678 15.8713 23.8741C15.59 23.8709 15.3182 23.8022 14.7869 23.5991C14.7494 23.5835 14.7088 23.5678 14.6557 23.5491L14.5182 23.496C13.9745 23.2866 13.6495 23.1741 13.2339 23.0647C12.6526 22.9147 12.0745 22.8335 11.4558 22.8335C10.8246 22.8335 10.2309 22.9116 9.64025 23.0585C9.20589 23.1679 8.84028 23.2897 8.30593 23.4897C8.28405 23.4991 8.05281 23.5866 7.98719 23.6116C7.87782 23.6522 7.79345 23.6835 7.71532 23.7116C7.39034 23.8241 7.1841 23.8709 6.99973 23.8741C6.97785 23.8741 6.95911 23.8709 6.94348 23.8678C6.90911 23.8616 6.86536 23.8491 6.81536 23.8272C6.67474 23.771 6.506 23.6678 6.31538 23.521C5.8779 23.1803 5.39667 22.646 4.90606 21.9616C4.04672 20.7554 3.23425 19.1555 2.84364 18.0337C2.36241 16.6337 2.12492 15.2932 2.12492 14.0151C2.12492 12.1339 2.68115 10.7027 3.63736 9.73087C4.4592 8.89965 5.56541 8.43405 6.69349 8.40905C6.87786 8.41217 7.1466 8.45592 7.48721 8.54967C7.75595 8.62154 8.04969 8.71841 8.44655 8.85903C8.56529 8.90278 8.97465 9.04965 9.02465 9.0684C9.26526 9.15589 9.44651 9.21839 9.62463 9.27464C10.1934 9.45588 10.634 9.55588 11.1121 9.55588C11.5964 9.55588 12.012 9.45276 12.6026 9.24964C12.8245 9.17464 13.6307 8.87465 13.7745 8.82466C14.5744 8.54029 15.165 8.38717 15.6744 8.34968C15.8244 8.33718 15.9588 8.33718 16.0869 8.34655C16.7962 8.4028 17.4024 8.54342 17.9181 8.77778C16.7431 10.134 16.1369 11.7933 16.14 13.7276C16.1306 14.1869 16.1681 14.7182 16.2994 15.3463C16.4994 16.2994 16.8806 17.2431 17.4837 18.1274C17.9431 18.7993 18.5118 19.4055 19.193 19.9336C18.8336 20.6742 18.393 21.4398 17.9306 22.0835ZM14.9775 4.20921C16.5619 2.32803 16.4181 0.615601 16.3712 0C14.9713 0.0812468 13.3526 0.953088 12.4308 2.02492C11.4152 3.17488 10.8183 4.5967 10.9464 6.19976C12.4589 6.31538 13.8401 5.53728 14.9775 4.20921Z" fill="black"/>
</svg>
