<svg width="36" height="20" viewBox="0 0 36 20" fill="none" xmlns="http://www.w3.org/2000/svg">
<path d="M31.1111 2.22222C31.7005 2.22222 32.2657 2.45635 32.6825 2.8731C33.0992 3.28984 33.3333 3.85507 33.3333 4.44444V15.5556C33.3333 16.1449 33.0992 16.7102 32.6825 17.1269C32.2657 17.5437 31.7005 17.7778 31.1111 17.7778H4.44444C3.85507 17.7778 3.28984 17.5437 2.8731 17.1269C2.45635 16.7102 2.22222 16.1449 2.22222 15.5556V4.44444C2.22222 3.85507 2.45635 3.28984 2.8731 2.8731C3.28984 2.45635 3.85507 2.22222 4.44444 2.22222H31.1111ZM4.44444 0C3.2657 0 2.13524 0.468252 1.30175 1.30175C0.468253 2.13524 0 3.2657 0 4.44444L0 15.5556C0 16.7343 0.468253 17.8648 1.30175 18.6983C2.13524 19.5317 3.2657 20 4.44444 20H31.1111C32.2898 20 33.4203 19.5317 34.2538 18.6983C35.0873 17.8648 35.5556 16.7343 35.5556 15.5556V4.44444C35.5556 3.2657 35.0873 2.13524 34.2538 1.30175C33.4203 0.468252 32.2898 0 31.1111 0H4.44444Z" fill="black"/>
<path d="M28.8888 13.8889C28.8888 13.7416 28.9474 13.6003 29.0516 13.4961C29.1557 13.3919 29.2971 13.3333 29.4444 13.3333H30.5555C30.7029 13.3333 30.8442 13.3919 30.9483 13.4961C31.0525 13.6003 31.1111 13.7416 31.1111 13.8889V15C31.1111 15.1474 31.0525 15.2887 30.9483 15.3929C30.8442 15.497 30.7029 15.5556 30.5555 15.5556H29.4444C29.2971 15.5556 29.1557 15.497 29.0516 15.3929C28.9474 15.2887 28.8888 15.1474 28.8888 15V13.8889ZM28.8888 9.44446C28.8888 9.29712 28.9474 9.15581 29.0516 9.05162C29.1557 8.94743 29.2971 8.8889 29.4444 8.8889H30.5555C30.7029 8.8889 30.8442 8.94743 30.9483 9.05162C31.0525 9.15581 31.1111 9.29712 31.1111 9.44446V10.5556C31.1111 10.7029 31.0525 10.8442 30.9483 10.9484C30.8442 11.0526 30.7029 11.1111 30.5555 11.1111H29.4444C29.2971 11.1111 29.1557 11.0526 29.0516 10.9484C28.9474 10.8442 28.8888 10.7029 28.8888 10.5556V9.44446ZM17.7777 9.44446C17.7777 9.29712 17.8363 9.15581 17.9404 9.05162C18.0446 8.94743 18.1859 8.8889 18.3333 8.8889H19.4444C19.5917 8.8889 19.733 8.94743 19.8372 9.05162C19.9414 9.15581 20 9.29712 20 9.44446V10.5556C20 10.7029 19.9414 10.8442 19.8372 10.9484C19.733 11.0526 19.5917 11.1111 19.4444 11.1111H18.3333C18.1859 11.1111 18.0446 11.0526 17.9404 10.9484C17.8363 10.8442 17.7777 10.7029 17.7777 10.5556V9.44446ZM22.2222 9.44446C22.2222 9.29712 22.2807 9.15581 22.3849 9.05162C22.4891 8.94743 22.6304 8.8889 22.7777 8.8889H26.1111C26.2584 8.8889 26.3997 8.94743 26.5039 9.05162C26.6081 9.15581 26.6666 9.29712 26.6666 9.44446V10.5556C26.6666 10.7029 26.6081 10.8442 26.5039 10.9484C26.3997 11.0526 26.2584 11.1111 26.1111 11.1111H22.7777C22.6304 11.1111 22.4891 11.0526 22.3849 10.9484C22.2807 10.8442 22.2222 10.7029 22.2222 10.5556V9.44446ZM24.4444 13.8889C24.4444 13.7416 24.5029 13.6003 24.6071 13.4961C24.7113 13.3919 24.8526 13.3333 25 13.3333H26.1111C26.2584 13.3333 26.3997 13.3919 26.5039 13.4961C26.6081 13.6003 26.6666 13.7416 26.6666 13.8889V15C26.6666 15.1474 26.6081 15.2887 26.5039 15.3929C26.3997 15.497 26.2584 15.5556 26.1111 15.5556H25C24.8526 15.5556 24.7113 15.497 24.6071 15.3929C24.5029 15.2887 24.4444 15.1474 24.4444 15V13.8889ZM13.3333 9.44446C13.3333 9.29712 13.3918 9.15581 13.496 9.05162C13.6002 8.94743 13.7415 8.8889 13.8888 8.8889H15C15.1473 8.8889 15.2886 8.94743 15.3928 9.05162C15.497 9.15581 15.5555 9.29712 15.5555 9.44446V10.5556C15.5555 10.7029 15.497 10.8442 15.3928 10.9484C15.2886 11.0526 15.1473 11.1111 15 11.1111H13.8888C13.7415 11.1111 13.6002 11.0526 13.496 10.9484C13.3918 10.8442 13.3333 10.7029 13.3333 10.5556V9.44446ZM8.88884 9.44446C8.88884 9.29712 8.94737 9.15581 9.05156 9.05162C9.15575 8.94743 9.29705 8.8889 9.4444 8.8889H10.5555C10.7029 8.8889 10.8442 8.94743 10.9483 9.05162C11.0525 9.15581 11.1111 9.29712 11.1111 9.44446V10.5556C11.1111 10.7029 11.0525 10.8442 10.9483 10.9484C10.8442 11.0526 10.7029 11.1111 10.5555 11.1111H9.4444C9.29705 11.1111 9.15575 11.0526 9.05156 10.9484C8.94737 10.8442 8.88884 10.7029 8.88884 10.5556V9.44446ZM4.4444 9.44446C4.4444 9.29712 4.50293 9.15581 4.60712 9.05162C4.7113 8.94743 4.85261 8.8889 4.99995 8.8889H6.11106C6.25841 8.8889 6.39971 8.94743 6.5039 9.05162C6.60809 9.15581 6.66662 9.29712 6.66662 9.44446V10.5556C6.66662 10.7029 6.60809 10.8442 6.5039 10.9484C6.39971 11.0526 6.25841 11.1111 6.11106 11.1111H4.99995C4.85261 11.1111 4.7113 11.0526 4.60712 10.9484C4.50293 10.8442 4.4444 10.7029 4.4444 10.5556V9.44446ZM28.8888 5.00001C28.8888 4.85267 28.9474 4.71136 29.0516 4.60718C29.1557 4.50299 29.2971 4.44446 29.4444 4.44446H30.5555C30.7029 4.44446 30.8442 4.50299 30.9483 4.60718C31.0525 4.71136 31.1111 4.85267 31.1111 5.00001V6.11112C31.1111 6.25847 31.0525 6.39978 30.9483 6.50396C30.8442 6.60815 30.7029 6.66668 30.5555 6.66668H29.4444C29.2971 6.66668 29.1557 6.60815 29.0516 6.50396C28.9474 6.39978 28.8888 6.25847 28.8888 6.11112V5.00001ZM24.4444 5.00001C24.4444 4.85267 24.5029 4.71136 24.6071 4.60718C24.7113 4.50299 24.8526 4.44446 25 4.44446H26.1111C26.2584 4.44446 26.3997 4.50299 26.5039 4.60718C26.6081 4.71136 26.6666 4.85267 26.6666 5.00001V6.11112C26.6666 6.25847 26.6081 6.39978 26.5039 6.50396C26.3997 6.60815 26.2584 6.66668 26.1111 6.66668H25C24.8526 6.66668 24.7113 6.60815 24.6071 6.50396C24.5029 6.39978 24.4444 6.25847 24.4444 6.11112V5.00001ZM20 5.00001C20 4.85267 20.0585 4.71136 20.1627 4.60718C20.2669 4.50299 20.4082 4.44446 20.5555 4.44446H21.6666C21.814 4.44446 21.9553 4.50299 22.0595 4.60718C22.1636 4.71136 22.2222 4.85267 22.2222 5.00001V6.11112C22.2222 6.25847 22.1636 6.39978 22.0595 6.50396C21.9553 6.60815 21.814 6.66668 21.6666 6.66668H20.5555C20.4082 6.66668 20.2669 6.60815 20.1627 6.50396C20.0585 6.39978 20 6.25847 20 6.11112V5.00001ZM15.5555 5.00001C15.5555 4.85267 15.614 4.71136 15.7182 4.60718C15.8224 4.50299 15.9637 4.44446 16.1111 4.44446H17.2222C17.3695 4.44446 17.5108 4.50299 17.615 4.60718C17.7192 4.71136 17.7777 4.85267 17.7777 5.00001V6.11112C17.7777 6.25847 17.7192 6.39978 17.615 6.50396C17.5108 6.60815 17.3695 6.66668 17.2222 6.66668H16.1111C15.9637 6.66668 15.8224 6.60815 15.7182 6.50396C15.614 6.39978 15.5555 6.25847 15.5555 6.11112V5.00001ZM11.1111 5.00001C11.1111 4.85267 11.1696 4.71136 11.2738 4.60718C11.378 4.50299 11.5193 4.44446 11.6666 4.44446H12.7777C12.9251 4.44446 13.0664 4.50299 13.1706 4.60718C13.2748 4.71136 13.3333 4.85267 13.3333 5.00001V6.11112C13.3333 6.25847 13.2748 6.39978 13.1706 6.50396C13.0664 6.60815 12.9251 6.66668 12.7777 6.66668H11.6666C11.5193 6.66668 11.378 6.60815 11.2738 6.50396C11.1696 6.39978 11.1111 6.25847 11.1111 6.11112V5.00001ZM4.4444 5.00001C4.4444 4.85267 4.50293 4.71136 4.60712 4.60718C4.7113 4.50299 4.85261 4.44446 4.99995 4.44446H8.33329C8.48063 4.44446 8.62194 4.50299 8.72612 4.60718C8.83031 4.71136 8.88884 4.85267 8.88884 5.00001V6.11112C8.88884 6.25847 8.83031 6.39978 8.72612 6.50396C8.62194 6.60815 8.48063 6.66668 8.33329 6.66668H4.99995C4.85261 6.66668 4.7113 6.60815 4.60712 6.50396C4.50293 6.39978 4.4444 6.25847 4.4444 6.11112V5.00001ZM4.4444 13.8889C4.4444 13.7416 4.50293 13.6003 4.60712 13.4961C4.7113 13.3919 4.85261 13.3333 4.99995 13.3333H6.11106C6.25841 13.3333 6.39971 13.3919 6.5039 13.4961C6.60809 13.6003 6.66662 13.7416 6.66662 13.8889V15C6.66662 15.1474 6.60809 15.2887 6.5039 15.3929C6.39971 15.497 6.25841 15.5556 6.11106 15.5556H4.99995C4.85261 15.5556 4.7113 15.497 4.60712 15.3929C4.50293 15.2887 4.4444 15.1474 4.4444 15V13.8889ZM8.88884 13.8889C8.88884 13.7416 8.94737 13.6003 9.05156 13.4961C9.15575 13.3919 9.29705 13.3333 9.4444 13.3333H21.6666C21.814 13.3333 21.9553 13.3919 22.0595 13.4961C22.1636 13.6003 22.2222 13.7416 22.2222 13.8889V15C22.2222 15.1474 22.1636 15.2887 22.0595 15.3929C21.9553 15.497 21.814 15.5556 21.6666 15.5556H9.4444C9.29705 15.5556 9.15575 15.497 9.05156 15.3929C8.94737 15.2887 8.88884 15.1474 8.88884 15V13.8889Z" fill="black"/>
</svg>
