<svg width="29" height="24" viewBox="0 0 29 24" fill="none" xmlns="http://www.w3.org/2000/svg">
<path d="M28.4336 22.6308L26.5028 15.8298V1.02128C26.5028 0.456383 26.0464 0 25.4815 0H3.0134C2.44851 0 1.99212 0.456383 1.99212 1.02128V15.8298L0.0612723 22.6308C-0.178089 23.2979 0.3134 24 1.02191 24H27.473C28.1815 24 28.673 23.2979 28.4336 22.6308ZM4.29 2.29787H24.2049V14.9043H4.29V2.29787ZM11.5762 21.7021L11.8347 20.5213H16.6315L16.89 21.7021H11.5762ZM18.7251 21.7021L18.1155 18.9351C18.09 18.817 17.9847 18.734 17.8666 18.734H10.6028C10.4815 18.734 10.3794 18.817 10.3538 18.9351L9.74425 21.7021H2.7134L4.0634 16.9468H24.4315L25.7815 21.7021H18.7251Z" fill="black"/>
</svg>
