<svg width="33" height="20" viewBox="0 0 33 20" fill="none" xmlns="http://www.w3.org/2000/svg">
<path d="M0 0V20H9.02324V0H0ZM6.55637 18.3303C6.39884 18.3303 6.24485 18.2836 6.11388 18.1961C5.9829 18.1086 5.88081 17.9842 5.82053 17.8386C5.76025 17.6931 5.74447 17.533 5.77521 17.3785C5.80594 17.224 5.88179 17.0821 5.99318 16.9707C6.10457 16.8593 6.24649 16.7834 6.40099 16.7527C6.55549 16.722 6.71563 16.7377 6.86116 16.798C7.0067 16.8583 7.13109 16.9604 7.21861 17.0914C7.30612 17.2223 7.35284 17.3763 7.35284 17.5339C7.35284 17.7451 7.26892 17.9477 7.11956 18.097C6.97019 18.2464 6.7676 18.3303 6.55637 18.3303ZM7.85968 4.63399H1.15198V3.47549H7.85895V4.63399H7.85968ZM7.85968 2.31699H1.15198V1.1585H7.85895V2.31699H7.85968ZM18.9378 15.9663H24.2307V18.8415H27.2529V20H15.917V18.8415H18.9393V15.9663H18.9378ZM10.3939 0V14.8078H32.7782V0H10.3932H10.3939ZM31.6197 13.6493H11.5517V1.1585H31.6197V13.6493Z" fill="black"/>
</svg>
