<svg xmlns="http://www.w3.org/2000/svg" width="23" height="20" viewBox="0 0 23 20">
  <g id="Group_12906" data-name="Group 12906" transform="translate(-4.167 -11.832)">
    <path id="Path_23671" data-name="Path 23671" d="M141.522,37.837h3.591a2.564,2.564,0,0,1,2.564,2.564V50.19a2.565,2.565,0,0,1-2.564,2.564h-3.591" transform="translate(-121.01 -22.809)" fill="none" stroke="#FF2C00" stroke-linecap="round" stroke-linejoin="round" stroke-width="1"/>
    <path id="Path_23672" data-name="Path 23672" d="M10.821,52.754H7.231A2.565,2.565,0,0,1,4.667,50.19V40.4a2.564,2.564,0,0,1,2.564-2.564h3.59" transform="translate(0 -22.809)" fill="none" stroke="#FF2C00" stroke-linecap="round" stroke-linejoin="round" stroke-width="1"/>
    <circle id="Ellipse_1976" data-name="Ellipse 1976" cx="1.545" cy="1.545" r="1.545" transform="translate(14.122 21.043)" fill="#FF2C00"/>
    <path id="Path_23673" data-name="Path 23673" d="M57.546,65.408A4.857,4.857,0,0,1,62.4,60.55" transform="translate(-46.762 -42.784)" fill="none" stroke="#FF2C00" stroke-linecap="round" stroke-linejoin="round" stroke-width="1"/>
    <ellipse id="Ellipse_1977" data-name="Ellipse 1977" cx="6.763" cy="6.675" rx="6.763" ry="6.675" transform="translate(8.904 15.811)" fill="none" stroke="#FF2C00" stroke-linecap="round" stroke-linejoin="round" stroke-width="1"/>
    <ellipse id="Ellipse_1978" data-name="Ellipse 1978" cx="8.934" cy="8.734" rx="8.934" ry="8.734" transform="translate(6.733 13.864)" fill="none" stroke="#FF2C00" stroke-linecap="round" stroke-linejoin="round" stroke-width="1"/>
    <path id="Path_23674" data-name="Path 23674" d="M125.59,14.123v-.665a1.209,1.209,0,0,1,1.278-1.126h3.688a1.209,1.209,0,0,1,1.278,1.126v1.571" transform="translate(-106.902 0)" fill="none" stroke="#FF2C00" stroke-linecap="round" stroke-linejoin="round" stroke-width="1"/>
  </g>
</svg>
