<svg xmlns="http://www.w3.org/2000/svg" width="36" height="36" viewBox="0 0 36 36">
  <g id="Group_90" data-name="Group 90" transform="translate(-166 -772)">
    <rect id="Rectangle_46" data-name="Rectangle 46" width="36" height="36" rx="12" transform="translate(166 772)" fill="#f9ce54"/>
    <g id="Layer_2" data-name="Layer 2" transform="translate(170.355 776.355)">
      <g id="invisible_box" data-name="invisible box" transform="translate(-0.377 -0.377)">
        <rect id="Rectangle_45" data-name="Rectangle 45" width="28" height="28" transform="translate(0.022 0.022)" fill="none"/>
      </g>
      <g id="Health_Icons" data-name="Health Icons" transform="translate(2.219 2.219)">
        <g id="Group_12" data-name="Group 12">
          <path id="Path_29" data-name="Path 29" d="M5.143,12a1.143,1.143,0,0,0,1.143-1.143V6.285h4.57a1.143,1.143,0,1,0,0-2.285H6.285A2.285,2.285,0,0,0,4,6.285v4.57A1.143,1.143,0,0,0,5.143,12Z" transform="translate(-4 -4)" fill="#fff"/>
          <path id="Path_30" data-name="Path 30" d="M35.713,4h-4.57a1.143,1.143,0,1,0,0,2.285h4.57v4.57a1.143,1.143,0,1,0,2.285,0V6.285A2.285,2.285,0,0,0,35.713,4Z" transform="translate(-15.147 -4)" fill="#fff"/>
          <path id="Path_31" data-name="Path 31" d="M36.855,30a1.143,1.143,0,0,0-1.143,1.143v4.57h-4.57a1.143,1.143,0,1,0,0,2.285h4.57A2.285,2.285,0,0,0,38,35.713v-4.57A1.143,1.143,0,0,0,36.855,30Z" transform="translate(-15.147 -15.147)" fill="#fff"/>
          <path id="Path_32" data-name="Path 32" d="M10.855,35.713H6.285v-4.57a1.143,1.143,0,1,0-2.285,0v4.57A2.285,2.285,0,0,0,6.285,38h4.57a1.143,1.143,0,1,0,0-2.285Z" transform="translate(-4 -15.147)" fill="#fff"/>
          <path id="Path_33" data-name="Path 33" d="M25.709,22H5.143a1.143,1.143,0,0,0,0,2.285H25.709a1.143,1.143,0,0,0,0-2.285Z" transform="translate(-4 -11.717)" fill="#fff"/>
        </g>
      </g>
    </g>
  </g>
</svg>
